grf
version=1
nRows=12
nColumns=37
inDegrees=no
endheader
time	ground_force_1_vx	ground_force_1_vy	ground_force_1_vz	ground_force_1_px	ground_force_1_py	ground_force_1_pz	ground_moment_1_mx	ground_moment_1_my	ground_moment_1_mz	ground_force_2_vx	ground_force_2_vy	ground_force_2_vz	ground_force_2_px	ground_force_2_py	ground_force_2_pz	ground_moment_2_mx	ground_moment_2_my	ground_moment_2_mz	ground_force_3_vx	ground_force_3_vy	ground_force_3_vz	ground_force_3_px	ground_force_3_py	ground_force_3_pz	ground_moment_3_mx	ground_moment_3_my	ground_moment_3_mz	ground_force_4_vx	ground_force_4_vy	ground_force_4_vz	ground_force_4_px	ground_force_4_py	ground_force_4_pz	ground_moment_4_mx	ground_moment_4_my	ground_moment_4_mz
      0.00000000	      0.00000000	     -0.00000000	      0.00000000	      0.00000000	      0.00000000	      0.00000000	      0.00000000	      0.00000000	      0.00000000	      0.22428839	     14.32918358	   -353.00503540	   -291.97939635	  -1005.66896637	      0.00000000	      0.00000000	      0.00000000	   1714.12562501	     -1.97274776	    -15.87688715	   -375.95321655	   -279.49604775	   -748.79754758	      0.00000000	      0.00000000	     -0.00000000	  -2605.39510173	      0.00000000	     -0.00000000	      0.00000000	      0.00000000	      0.00000000	      0.00000000	      0.00000000	      0.00000000	      0.00000000
      0.01000000	      0.00000000	     -0.00000000	      0.00000000	      0.00000000	      0.00000000	      0.00000000	      0.00000000	      0.00000000	      0.00000000	      0.20085631	     14.79564667	   -353.53314209	   -292.78471526	  -1005.11024419	      0.00000000	     -0.00000000	      0.00000000	   1568.62021638	     -1.99543614	    -15.78833467	   -375.77114868	   -279.22095933	   -749.76334037	      0.00000000	      0.00000000	      0.00000000	  -2623.87040752	      0.00000000	     -0.00000000	      0.00000000	      0.00000000	      0.00000000	      0.00000000	      0.00000000	      0.00000000	      0.00000000
      0.02000000	      0.00000000	     -0.00000000	      0.00000000	      0.00000000	      0.00000000	      0.00000000	      0.00000000	      0.00000000	      0.00000000	      0.31237301	     14.43912506	   -351.67974854	   -292.39775554	  -1002.53319388	      0.00000000	      0.00000000	      0.00000000	   1787.05183812	     -2.32801532	    -16.31807307	   -377.42950439	   -279.51034251	   -748.83314546	      0.00000000	     -0.00000000	     -0.00000000	  -2534.87077460	      0.00000000	     -0.00000000	      0.00000000	      0.00000000	      0.00000000	      0.00000000	      0.00000000	      0.00000000	      0.00000000
      0.03000000	      0.00000000	     -0.00000000	      0.00000000	      0.00000000	      0.00000000	      0.00000000	      0.00000000	      0.00000000	      0.00000000	      0.46834418	     14.90703392	   -353.17990112	   -292.98423719	  -1004.60199685	      0.00000000	      0.00000000	      0.00000000	   1736.41575464	     -2.01862381	    -16.11960775	   -378.30459595	   -279.74332881	   -747.85398625	      0.00000000	      0.00000000	     -0.00000000	  -2629.96354932	      0.00000000	     -0.00000000	      0.00000000	      0.00000000	      0.00000000	      0.00000000	      0.00000000	      0.00000000	      0.00000000
      0.04000000	      0.00000000	     -0.00000000	      0.00000000	      0.00000000	      0.00000000	      0.00000000	      0.00000000	      0.00000000	      0.00000000	      0.40189144	     14.57296848	   -352.56158447	   -293.06690137	  -1004.19343553	      0.00000000	      0.00000000	      0.00000000	   1636.41612608	     -2.21806475	    -15.94191818	   -377.69332886	   -279.27809620	   -748.04744573	      0.00000000	      0.00000000	      0.00000000	  -2484.98205291	      0.00000000	     -0.00000000	      0.00000000	      0.00000000	      0.00000000	      0.00000000	      0.00000000	      0.00000000	      0.00000000
      0.05000000	      0.00000000	     -0.00000000	      0.00000000	      0.00000000	      0.00000000	      0.00000000	      0.00000000	      0.00000000	      0.00000000	      0.71423692	     14.39483643	   -351.67507935	   -293.46024697	  -1004.07078454	      0.00000000	      0.00000000	      0.00000000	   1780.72067970	     -2.17339654	    -15.78752976	   -377.34558105	   -280.33175192	   -747.90542984	      0.00000000	      0.00000000	     -0.00000000	  -2629.50567015	      0.00000000	     -0.00000000	      0.00000000	      0.00000000	      0.00000000	      0.00000000	      0.00000000	      0.00000000	      0.00000000
      0.06000000	      0.00000000	     -0.00000000	      0.00000000	      0.00000000	      0.00000000	      0.00000000	      0.00000000	      0.00000000	      0.00000000	      0.71282047	     14.79564667	   -352.65191650	   -294.09919712	  -1004.43922834	      0.00000000	      0.00000000	      0.00000000	   1750.90165905	     -2.28491303	    -16.00850658	   -376.90969849	   -280.28773054	   -748.45739039	      0.00000000	      0.00000000	     -0.00000000	  -2530.80542751	      0.00000000	     -0.00000000	      0.00000000	      0.00000000	      0.00000000	      0.00000000	      0.00000000	      0.00000000	      0.00000000
      0.07000000	      0.00000000	     -0.00000000	      0.00000000	      0.00000000	      0.00000000	      0.00000000	      0.00000000	      0.00000000	      0.00000000	      0.93839163	     14.61738586	   -351.94604492	   -293.97200623	  -1003.24749943	      0.00000000	      0.00000000	      0.00000000	   1807.24589563	     -2.15110630	    -15.74268513	   -376.12307739	   -280.18856724	   -748.55885587	      0.00000000	      0.00000000	     -0.00000000	  -2566.51216568	      0.00000000	     -0.00000000	      0.00000000	      0.00000000	      0.00000000	      0.00000000	      0.00000000	      0.00000000	      0.00000000
      0.08000000	      0.00000000	     -0.00000000	      0.00000000	      0.00000000	      0.00000000	      0.00000000	      0.00000000	      0.00000000	      0.00000000	      0.82485694	     14.30474949	   -353.01681519	   -294.97131925	  -1004.39803927	      0.00000000	      0.00000000	      0.00000000	   1672.61462463	     -2.08509631	    -15.83146745	   -376.29891968	   -280.26347915	   -748.95967778	      0.00000000	      0.00000000	     -0.00000000	  -2518.06549166	      0.00000000	     -0.00000000	      0.00000000	      0.00000000	      0.00000000	      0.00000000	      0.00000000	      0.00000000	      0.00000000
      0.09000000	      0.00000000	     -0.00000000	      0.00000000	      0.00000000	      0.00000000	      0.00000000	      0.00000000	      0.00000000	      0.00000000	      1.00320029	     14.32645893	   -352.47357178	   -296.02378073	  -1002.94722080	      0.00000000	      0.00000000	      0.00000000	   1773.39059482	     -1.75122055	    -15.96441635	   -377.61395264	   -280.82392684	   -747.32614446	      0.00000000	     -0.00000000	     -0.00000000	  -2663.82410826	      0.00000000	     -0.00000000	      0.00000000	      0.00000000	      0.00000000	      0.00000000	      0.00000000	      0.00000000	      0.00000000
      0.10000000	      0.00000000	     -0.00000000	      0.00000000	      0.00000000	      0.00000000	      0.00000000	      0.00000000	      0.00000000	      0.00000000	      0.95756674	     14.10247803	   -353.36038208	   -295.95202037	  -1003.86461968	      0.00000000	      0.00000000	      0.00000000	   1631.64980468	     -1.88610264	    -15.98490126	   -377.51889038	   -280.76092385	   -747.92830505	      0.00000000	      0.00000000	      0.00000000	  -2443.26163028	      0.00000000	     -0.00000000	      0.00000000	      0.00000000	      0.00000000	      0.00000000	      0.00000000	      0.00000000	      0.00000000
      0.11000000	      0.00000000	     -0.00000000	      0.00000000	      0.00000000	      0.00000000	      0.00000000	      0.00000000	      0.00000000	      0.00000000	      0.53089237	     13.96736908	   -353.25744629	   -295.93715231	  -1002.77587361	      0.00000000	      0.00000000	     -0.00000000	   1491.58329880	     -1.79599853	    -15.87463935	   -376.04251099	   -280.78984901	   -749.56248005	      0.00000000	     -0.00000000	     -0.00000000	  -2580.98952668	      0.00000000	     -0.00000000	      0.00000000	      0.00000000	      0.00000000	      0.00000000	      0.00000000	      0.00000000	      0.00000000
